<svg width="126" height="22" viewBox="0 0 126 22" fill="none" xmlns="http://www.w3.org/2000/svg">
<path d="M23.164 3.91438C25.6837 1.43889 28.4062 0.35175 30.2109 1.39484C32.8603 2.92624 32.5279 8.46805 29.4687 13.7728C26.4094 19.0775 21.7814 22.1369 19.1318 20.6058C18.2943 20.1217 17.7555 19.2366 17.5058 18.0853C14.9862 20.5608 12.2647 21.6489 10.4599 20.6058C9.62264 20.1218 9.08372 19.2372 8.83395 18.0863C6.31448 20.5613 3.59264 21.6488 1.78805 20.6058C-0.861185 19.0743 -0.528893 13.5325 2.53024 8.22785C5.58952 2.92324 10.2175 -0.136016 12.8672 1.39484C13.7044 1.87873 14.2423 2.76364 14.4922 3.91438C17.0117 1.43886 19.7343 0.3519 21.539 1.39484C22.3762 1.87874 22.9142 2.76361 23.164 3.91438Z" fill="#1463FF"/>
<path d="M120.233 18.1599C119.26 18.1599 118.393 17.9933 117.633 17.6599C116.873 17.3266 116.273 16.8733 115.833 16.2999C115.393 15.7133 115.146 15.0599 115.093 14.3399H118.473C118.513 14.7266 118.693 15.0399 119.013 15.2799C119.333 15.5199 119.726 15.6399 120.193 15.6399C120.62 15.6399 120.946 15.5599 121.173 15.3999C121.413 15.2266 121.533 15.0066 121.533 14.7399C121.533 14.4199 121.366 14.1866 121.033 14.0399C120.7 13.8799 120.16 13.7066 119.413 13.5199C118.613 13.3333 117.946 13.1399 117.413 12.9399C116.88 12.7266 116.42 12.3999 116.033 11.9599C115.646 11.5066 115.453 10.8999 115.453 10.1399C115.453 9.49993 115.626 8.91993 115.973 8.39993C116.333 7.8666 116.853 7.4466 117.533 7.13993C118.226 6.83326 119.046 6.67993 119.993 6.67993C121.393 6.67993 122.493 7.0266 123.293 7.71993C124.106 8.41327 124.573 9.33327 124.693 10.4799H121.533C121.48 10.0933 121.306 9.7866 121.013 9.55993C120.733 9.33327 120.36 9.21993 119.893 9.21993C119.493 9.21993 119.186 9.29993 118.973 9.45993C118.76 9.6066 118.653 9.81327 118.653 10.0799C118.653 10.3999 118.82 10.6399 119.153 10.7999C119.5 10.9599 120.033 11.1199 120.753 11.2799C121.58 11.4933 122.253 11.7066 122.773 11.9199C123.293 12.1199 123.746 12.4533 124.133 12.9199C124.533 13.3733 124.74 13.9866 124.753 14.7599C124.753 15.4133 124.566 15.9999 124.193 16.5199C123.833 17.0266 123.306 17.4266 122.613 17.7199C121.933 18.0133 121.14 18.1599 120.233 18.1599Z" fill="#121214"/>
<path d="M101.439 12.4C101.439 11.2533 101.652 10.2466 102.079 9.37995C102.519 8.51328 103.112 7.84662 103.859 7.37995C104.606 6.91328 105.439 6.67995 106.359 6.67995C107.092 6.67995 107.759 6.83328 108.359 7.13995C108.972 7.44662 109.452 7.85995 109.799 8.37995V3.19995H113.219V18H109.799V16.4C109.479 16.9333 109.019 17.36 108.419 17.68C107.832 18 107.146 18.16 106.359 18.16C105.439 18.16 104.606 17.9266 103.859 17.46C103.112 16.9799 102.519 16.3066 102.079 15.44C101.652 14.56 101.439 13.5466 101.439 12.4ZM109.799 12.42C109.799 11.5666 109.559 10.8933 109.079 10.4C108.612 9.90662 108.039 9.65995 107.359 9.65995C106.679 9.65995 106.099 9.90662 105.619 10.4C105.152 10.88 104.919 11.5466 104.919 12.4C104.919 13.2533 105.152 13.9333 105.619 14.44C106.099 14.9333 106.679 15.18 107.359 15.18C108.039 15.18 108.612 14.9333 109.079 14.44C109.559 13.9466 109.799 13.2733 109.799 12.42Z" fill="#121214"/>
<path d="M94.4645 18.1599C93.3712 18.1599 92.3845 17.9266 91.5045 17.4599C90.6379 16.9933 89.9512 16.3266 89.4445 15.4599C88.9512 14.5933 88.7045 13.5799 88.7045 12.4199C88.7045 11.2733 88.9579 10.2666 89.4645 9.39993C89.9712 8.51993 90.6645 7.8466 91.5445 7.37993C92.4245 6.91326 93.4112 6.67993 94.5045 6.67993C95.5979 6.67993 96.5845 6.91326 97.4645 7.37993C98.3445 7.8466 99.0379 8.51993 99.5445 9.39993C100.051 10.2666 100.305 11.2733 100.305 12.4199C100.305 13.5666 100.045 14.5799 99.5245 15.4599C99.0179 16.3266 98.3179 16.9933 97.4245 17.4599C96.5445 17.9266 95.5579 18.1599 94.4645 18.1599ZM94.4645 15.1999C95.1179 15.1999 95.6712 14.9599 96.1245 14.4799C96.5912 13.9999 96.8245 13.3133 96.8245 12.4199C96.8245 11.5266 96.5979 10.8399 96.1445 10.3599C95.7045 9.87993 95.1579 9.63993 94.5045 9.63993C93.8379 9.63993 93.2845 9.87993 92.8445 10.3599C92.4045 10.8266 92.1845 11.5133 92.1845 12.4199C92.1845 13.3133 92.3979 13.9999 92.8245 14.4799C93.2645 14.9599 93.8112 15.1999 94.4645 15.1999Z" fill="#121214"/>
<path d="M81.7302 18.1599C80.6368 18.1599 79.6502 17.9266 78.7702 17.4599C77.9035 16.9933 77.2168 16.3266 76.7102 15.4599C76.2168 14.5933 75.9702 13.5799 75.9702 12.4199C75.9702 11.2733 76.2235 10.2666 76.7302 9.39993C77.2368 8.51993 77.9302 7.8466 78.8102 7.37993C79.6902 6.91326 80.6768 6.67993 81.7702 6.67993C82.8635 6.67993 83.8502 6.91326 84.7302 7.37993C85.6102 7.8466 86.3035 8.51993 86.8102 9.39993C87.3168 10.2666 87.5702 11.2733 87.5702 12.4199C87.5702 13.5666 87.3102 14.5799 86.7902 15.4599C86.2835 16.3266 85.5835 16.9933 84.6902 17.4599C83.8102 17.9266 82.8235 18.1599 81.7302 18.1599ZM81.7302 15.1999C82.3835 15.1999 82.9368 14.9599 83.3902 14.4799C83.8568 13.9999 84.0902 13.3133 84.0902 12.4199C84.0902 11.5266 83.8635 10.8399 83.4102 10.3599C82.9702 9.87993 82.4235 9.63993 81.7702 9.63993C81.1035 9.63993 80.5502 9.87993 80.1102 10.3599C79.6702 10.8266 79.4502 11.5133 79.4502 12.4199C79.4502 13.3133 79.6635 13.9999 80.0902 14.4799C80.5302 14.9599 81.0768 15.1999 81.7302 15.1999Z" fill="#121214"/>
<path d="M70.7358 8.39993C70.4824 7.93326 70.1158 7.57993 69.6358 7.33993C69.1691 7.08659 68.6158 6.95993 67.9758 6.95993C66.8691 6.95993 65.9824 7.32659 65.3158 8.05993C64.6491 8.77993 64.3158 9.74659 64.3158 10.9599C64.3158 12.2533 64.6624 13.2666 65.3558 13.9999C66.0624 14.7199 67.0291 15.0799 68.2558 15.0799C69.0958 15.0799 69.8024 14.8666 70.3758 14.4399C70.9624 14.0133 71.3891 13.3999 71.6558 12.5999H67.3158V10.0799H74.7558V13.2599C74.5024 14.1133 74.0691 14.9066 73.4558 15.6399C72.8558 16.3733 72.0891 16.9666 71.1558 17.4199C70.2224 17.8733 69.1691 18.0999 67.9958 18.0999C66.6091 18.0999 65.3691 17.7999 64.2758 17.1999C63.1958 16.5866 62.3491 15.7399 61.7358 14.6599C61.1358 13.5799 60.8358 12.3466 60.8358 10.9599C60.8358 9.57326 61.1358 8.33993 61.7358 7.25993C62.3491 6.16659 63.1958 5.31993 64.2758 4.71993C65.3558 4.10659 66.5891 3.79993 67.9758 3.79993C69.6558 3.79993 71.0691 4.20659 72.2158 5.01993C73.3758 5.83326 74.1424 6.95993 74.5158 8.39993H70.7358Z" fill="#121214"/>
<path d="M57.3712 18.1599C56.7712 18.1599 56.2779 17.9866 55.8912 17.6399C55.5179 17.2799 55.3312 16.8399 55.3312 16.3199C55.3312 15.7866 55.5179 15.3399 55.8912 14.9799C56.2779 14.6199 56.7712 14.4399 57.3712 14.4399C57.9579 14.4399 58.4379 14.6199 58.8112 14.9799C59.1979 15.3399 59.3912 15.7866 59.3912 16.3199C59.3912 16.8399 59.1979 17.2799 58.8112 17.6399C58.4379 17.9866 57.9579 18.1599 57.3712 18.1599Z" fill="#1463FF"/>
<path d="M46.5 3.95996C47.98 3.95996 49.2733 4.25329 50.38 4.83996C51.4867 5.42663 52.34 6.25329 52.94 7.31996C53.5533 8.37329 53.86 9.59329 53.86 10.98C53.86 12.3533 53.5533 13.5733 52.94 14.64C52.34 15.7066 51.48 16.5333 50.36 17.12C49.2533 17.7066 47.9667 18 46.5 18H41.24V3.95996H46.5ZM46.28 15.04C47.5733 15.04 48.58 14.6866 49.3 13.98C50.02 13.2733 50.38 12.2733 50.38 10.98C50.38 9.68663 50.02 8.67996 49.3 7.95996C48.58 7.23996 47.5733 6.87996 46.28 6.87996H44.66V15.04H46.28Z" fill="#121214"/>
</svg>
